<svg width="14" height="15" viewBox="0 0 14 15" fill="none" xmlns="http://www.w3.org/2000/svg">
<path d="M6.60145 7.04174C8.50553 7.04174 10.0491 5.4654 10.0491 3.52087C10.0491 1.57635 8.50553 0 6.60145 0C4.69737 0 3.15381 1.57635 3.15381 3.52087C3.15381 5.4654 4.69737 7.04174 6.60145 7.04174Z" fill="black"/>
<path d="M9.80415 15.0002C9.0526 14.982 8.31958 14.7583 7.68151 14.3524C7.04344 13.9464 6.52367 13.3731 6.17641 12.6922C5.82914 12.0113 5.66709 11.2477 5.70714 10.4811C5.74719 9.71441 5.98788 8.97278 6.40411 8.33346C6.46684 8.24579 6.558 8.1837 6.66137 8.15827C6.76473 8.13283 6.87358 8.1457 6.96852 8.19457C7.01739 8.22683 7.05943 8.26877 7.09215 8.31791C7.12487 8.36705 7.1476 8.4224 7.15902 8.48067C7.17043 8.53894 7.17028 8.59896 7.15859 8.65717C7.14689 8.71538 7.12388 8.77061 7.09092 8.81958C6.69632 9.43237 6.51295 10.162 6.56979 10.8931C6.62664 11.6242 6.92045 12.3152 7.40479 12.8567C7.88913 13.3982 8.53638 13.7594 9.24423 13.8833C9.95209 14.0072 10.6802 13.8866 11.3134 13.5406C11.9466 13.1946 12.4489 12.643 12.7408 11.9729C13.0328 11.3028 13.0977 10.5524 12.9254 9.84044C12.753 9.12845 12.3532 8.49542 11.7892 8.0414C11.2252 7.58739 10.5291 7.33828 9.81095 7.33345C9.69372 7.33345 9.5813 7.2859 9.49841 7.20124C9.41551 7.11659 9.36895 7.00178 9.36895 6.88206C9.36895 6.76234 9.41551 6.64753 9.49841 6.56288C9.5813 6.47822 9.69372 6.43066 9.81095 6.43066C10.9219 6.43066 11.9874 6.88136 12.7729 7.68361C13.5585 8.48586 13.9998 9.57394 13.9998 10.7085C13.9998 11.843 13.5585 12.9311 12.7729 13.7334C11.9874 14.5356 10.9219 14.9863 9.81095 14.9863L9.80415 15.0002Z" fill="black"/>
<path d="M4.39839 7.45801C4.39839 7.45801 0.848754 8.54135 0.00554498 13.222C-0.00669857 13.3236 0.0013828 13.4267 0.0293004 13.5251C0.057218 13.6235 0.104391 13.715 0.167964 13.7942C0.231537 13.8734 0.310186 13.9386 0.399153 13.9859C0.48812 14.0332 0.585552 14.0615 0.685553 14.0692H7.48563C7.48563 14.0692 5.96921 11.3331 6.24801 9.95109C6.52682 8.56913 7.11842 8.83302 7.11842 8.83302C7.29894 8.54318 7.52932 8.28908 7.79843 8.08301C7.79843 8.08301 7.87323 7.99273 7.79843 7.93718C7.72363 7.88162 7.55363 7.99274 7.45163 8.02051C6.40079 8.2251 5.31299 8.02469 4.39839 7.45801Z" fill="black"/>
<path d="M8.32861 10.3754L8.39661 10.0768C8.80429 9.8681 9.26294 9.78601 9.71583 9.8407C10.1714 10.0143 10.3074 10.4032 10.117 11.0074L9.78383 12.2296C9.78383 12.2296 9.61383 12.7782 10.0694 12.7991C10.2284 12.8004 10.3866 12.777 10.5386 12.7296L10.5046 13.056C10.5046 13.056 9.37583 13.5282 8.96782 13.1463C8.85263 13.0287 8.77236 12.8802 8.73626 12.718C8.70016 12.5558 8.70972 12.3865 8.76382 12.2296L9.11742 10.8407C9.11742 10.8407 9.30782 10.299 8.77742 10.306L8.32861 10.3754Z" fill="black"/>
<path d="M10.0016 9.34018C10.3434 9.34018 10.6204 9.06968 10.6204 8.73601C10.6204 8.40233 10.3434 8.13184 10.0016 8.13184C9.65986 8.13184 9.38281 8.40233 9.38281 8.73601C9.38281 9.06968 9.65986 9.34018 10.0016 9.34018Z" fill="black"/>
</svg>
