<svg width="14" height="15" viewBox="0 0 14 15" fill="none" xmlns="http://www.w3.org/2000/svg">
<path fill-rule="evenodd" clip-rule="evenodd" d="M7.35522 5.51758C7.65452 5.59698 7.75928 5.9609 8.05858 6.03368C8.35788 6.10646 8.80684 5.90135 9.12859 5.98075C9.33062 6.18586 9.19594 6.54317 9.39797 6.74829C9.6 6.9534 10.1462 7.00634 10.3333 7.21146C10.3782 7.48274 10.049 7.71433 10.0938 7.98561C10.1387 8.2569 10.5578 8.56126 10.6027 8.82593C10.4755 9.07737 10.049 9.11707 9.92175 9.36189C9.79454 9.6067 9.95916 10.0633 9.83196 10.3081C9.57755 10.4603 9.19594 10.3081 8.93404 10.4404C8.67215 10.5727 8.53747 11.0491 8.28306 11.1947C7.97627 11.1947 7.75928 10.8705 7.44501 10.8705C7.13074 10.8705 6.74164 11.1947 6.43485 11.1947C6.18045 11.0491 6.18793 10.672 5.93352 10.533C5.67911 10.3941 5.14036 10.4669 4.88596 10.3147C4.75875 10.0699 4.99819 9.75889 4.88596 9.51407C4.77372 9.26925 4.25742 9.08398 4.1377 8.8524C4.18259 8.58773 4.57169 8.44216 4.61658 8.19073C4.66148 7.93929 4.36217 7.52906 4.39959 7.25777C4.60162 7.05265 5.02064 7.11882 5.22267 6.9137C5.4247 6.70859 5.40974 6.25203 5.61177 6.02706C5.90359 5.94766 6.21786 6.20572 6.50968 6.12632C6.8015 6.04691 7.06339 5.59698 7.35522 5.51758Z" fill="black"/>
<path d="M4.13788 9.79273L4.02564 9.70671C3.77525 9.55884 3.56971 9.3589 3.42703 9.12444C3.36282 8.99325 3.34457 8.84804 3.37465 8.70759C3.43947 8.453 3.59093 8.22208 3.80864 8.04592C3.7971 8.00312 3.7821 7.9611 3.76375 7.9202C3.6477 7.67574 3.59898 7.41041 3.62158 7.14604C3.64361 7.02066 3.70595 6.90352 3.80116 6.80859C4.01248 6.6126 4.28671 6.47865 4.58684 6.42482C4.58684 6.38512 4.58684 6.33881 4.62425 6.29911C4.67458 6.03729 4.79518 5.78997 4.97593 5.57789C5.07154 5.48251 5.19625 5.41358 5.3351 5.37938C5.44224 5.35277 5.55304 5.33941 5.66433 5.33968C5.85581 5.34367 6.04531 5.37495 6.22553 5.43232L6.33028 5.33968C6.53785 5.14459 6.79408 4.99505 7.07854 4.90298C7.14822 4.897 7.21838 4.897 7.28806 4.90298C7.36018 4.89609 7.43293 4.89609 7.50505 4.90298C7.80496 4.98819 8.06681 5.1549 8.25331 5.37938H8.39548C8.56754 5.34486 8.74292 5.32492 8.91926 5.31983C9.00888 5.31295 9.09901 5.31295 9.18864 5.31983V0.919722C9.18666 0.67519 9.07542 0.441269 8.87918 0.268975C8.68294 0.096681 8.41761 -6.238e-06 8.14107 3.01855e-10H1.04008C0.764235 3.01856e-10 0.499686 0.0968991 0.304633 0.269381C0.10958 0.441862 0 0.675797 0 0.919722V9.22369C0 9.46762 0.10958 9.70155 0.304633 9.87403C0.499686 10.0465 0.764235 10.1434 1.04008 10.1434H4.10047C4.09999 10.0257 4.11252 9.90827 4.13788 9.79273ZM2.16247 2.01148H7.31799C7.35533 2.01148 7.3923 2.01798 7.4268 2.03062C7.4613 2.04325 7.49264 2.06178 7.51904 2.08512C7.54545 2.10847 7.56639 2.13619 7.58068 2.16669C7.59497 2.1972 7.60233 2.2299 7.60233 2.26291C7.60233 2.29593 7.59497 2.32863 7.58068 2.35913C7.56639 2.38964 7.54545 2.41736 7.51904 2.44071C7.49264 2.46405 7.4613 2.48257 7.4268 2.49521C7.3923 2.50785 7.35533 2.51435 7.31799 2.51435H2.16247C2.08706 2.51435 2.01474 2.48786 1.96141 2.44071C1.90809 2.39355 1.87813 2.3296 1.87813 2.26291C1.87813 2.19623 1.90809 2.13228 1.96141 2.08512C2.01474 2.03797 2.08706 2.01148 2.16247 2.01148ZM2.16247 3.61934H7.31799C7.35867 3.61344 7.40032 3.61545 7.44005 3.6252C7.47977 3.63496 7.51663 3.65224 7.54805 3.67584C7.57947 3.69944 7.60471 3.72881 7.62202 3.7619C7.63933 3.79499 7.6483 3.83101 7.6483 3.86747C7.6483 3.90392 7.63933 3.93995 7.62202 3.97304C7.60471 4.00612 7.57947 4.03549 7.54805 4.05909C7.51663 4.0827 7.47977 4.09998 7.44005 4.10973C7.40032 4.11949 7.35867 4.12149 7.31799 4.11559H2.16247C2.12179 4.12149 2.08014 4.11949 2.04041 4.10973C2.00068 4.09998 1.96383 4.0827 1.93241 4.05909C1.90099 4.03549 1.87575 4.00612 1.85844 3.97304C1.84113 3.93995 1.83216 3.90392 1.83216 3.86747C1.83216 3.83101 1.84113 3.79499 1.85844 3.7619C1.87575 3.72881 1.90099 3.69944 1.93241 3.67584C1.96383 3.65224 2.00068 3.63496 2.04041 3.6252C2.08014 3.61545 2.12179 3.61344 2.16247 3.61934ZM1.91555 5.1478H4.07054V5.65067H1.91555V5.1478Z" fill="black"/>
<path fill-rule="evenodd" clip-rule="evenodd" d="M3.23242 14.1194L4.49698 11.0029C4.70166 11.0774 4.91938 11.1199 5.14049 11.1286C5.23352 11.134 5.32603 11.1451 5.41734 11.1617C5.41734 11.1948 5.46224 11.2477 5.46972 11.2742C5.5337 11.4299 5.63015 11.5735 5.75406 11.6977C5.8069 11.7488 5.86731 11.7933 5.93364 11.83C6.01988 11.8807 6.12197 11.9062 6.22546 11.9028C6.49022 11.8851 6.74656 11.8126 6.97372 11.6911C7.05169 11.6501 7.13449 11.6168 7.22065 11.5918C7.26491 11.6109 7.30744 11.6331 7.34785 11.658C7.42799 11.7126 7.51308 11.7613 7.60226 11.8036L6.18057 14.9994L5.12552 13.4511L3.23242 14.1194Z" fill="black"/>
<path fill-rule="evenodd" clip-rule="evenodd" d="M12.1295 13.5509V11.685L14.0001 11.4402L11.2391 9.36914C11.1193 9.49295 10.9747 9.59613 10.8126 9.67351C10.7679 9.69202 10.7253 9.71417 10.6854 9.73968C10.6776 9.82114 10.6776 9.90303 10.6854 9.98449C10.7121 10.2087 10.6788 10.4354 10.5881 10.6462C10.5491 10.7309 10.4811 10.8026 10.3935 10.8513C10.3268 10.8874 10.2567 10.9184 10.184 10.9439C10.0042 10.9891 9.81653 11.0048 9.63031 10.9902H9.48814C9.4321 11.0549 9.38205 11.1235 9.33849 11.1954L9.24121 11.3475L12.1295 13.5509Z" fill="black"/>
</svg>
