<svg width="14" height="16" viewBox="0 0 14 16" fill="none" xmlns="http://www.w3.org/2000/svg">
<path d="M13.3605 0.0574913C13.2339 0.0207634 13.0996 0.00130345 12.9639 2.03825e-05H1.0914C0.947918 -0.000743877 0.805669 0.0199915 0.672916 0.0610221C0.540163 0.102053 0.419553 0.162561 0.318097 0.239028C0.21664 0.315496 0.136359 0.406399 0.0819201 0.506454C0.0274808 0.606509 -3.15556e-05 0.71372 0.000982462 0.821859V14.3966C-0.0021715 14.4246 0.00228713 14.4528 0.0140867 14.4795C0.0258862 14.5062 0.044779 14.5308 0.06961 14.5517C0.097144 14.5879 0.135653 14.6187 0.181988 14.6415C0.228323 14.6644 0.281169 14.6786 0.336204 14.6831C0.391239 14.6876 0.4469 14.6822 0.498638 14.6673C0.550375 14.6525 0.596719 14.6286 0.63388 14.5977L1.2744 14.1035C1.34238 14.055 1.43243 14.0279 1.52604 14.0279C1.61964 14.0279 1.70969 14.055 1.77767 14.1035L2.96721 14.9138C3.03427 14.9637 3.12467 14.9916 3.21885 14.9916C3.31303 14.9916 3.40342 14.9637 3.47048 14.9138L4.75915 14.046C4.78984 14.0211 4.82701 14.0013 4.86834 13.9877C4.90967 13.9741 4.95427 13.9671 4.99935 13.9671C5.04443 13.9671 5.08903 13.9741 5.13036 13.9877C5.17169 14.0013 5.20886 14.0211 5.23954 14.046L6.6731 14.9368C6.74095 14.9759 6.82403 14.9972 6.90948 14.9972C6.99493 14.9972 7.07801 14.9759 7.14586 14.9368L8.44979 14.0575C8.51315 14.0135 8.59618 13.989 8.68236 13.989C8.76854 13.989 8.85156 14.0135 8.91492 14.0575L10.318 14.9368C10.3492 14.961 10.3866 14.9802 10.4278 14.9933C10.4691 15.0064 10.5134 15.0131 10.5582 15.0131C10.6029 15.0131 10.6473 15.0064 10.6885 14.9933C10.7298 14.9802 10.7671 14.961 10.7984 14.9368L11.9574 14.1035C12.0275 14.0558 12.1185 14.0294 12.2129 14.0294C12.3072 14.0294 12.3982 14.0558 12.4683 14.1035L13.3605 14.7242C13.4125 14.7613 13.4778 14.7861 13.5483 14.7955C13.6189 14.8049 13.6915 14.7985 13.7573 14.7771C13.823 14.7557 13.879 14.7202 13.9183 14.675C13.9575 14.6298 13.9783 14.577 13.9781 14.523V0.804618C13.991 0.647139 13.9385 0.490542 13.8278 0.356629C13.7171 0.222716 13.5537 0.118151 13.3605 0.0574913ZM9.65458 6.41956H8.52604C8.35828 7.25289 7.49662 7.80462 6.14695 7.97128C5.94756 7.99571 5.7464 8.01106 5.54456 8.01726L5.88769 8.25289C6.14695 8.4368 6.42146 8.6322 6.65022 8.82761C7.10011 9.15519 7.55763 9.51151 8.00752 9.87358C8.08412 9.93663 8.13486 10.015 8.15359 10.0994C8.17233 10.1837 8.15827 10.2703 8.1131 10.3487C8.06794 10.4271 7.9936 10.494 7.89909 10.5412C7.80457 10.5885 7.69392 10.6141 7.5805 10.615C7.50055 10.6174 7.42095 10.6057 7.3481 10.5808C7.27526 10.5558 7.21121 10.5183 7.16111 10.4713C6.77985 10.1724 6.39859 9.89657 5.98682 9.55174C5.74281 9.35059 5.48355 9.14945 5.22429 8.94255C4.96503 8.73565 4.52277 8.41956 4.12625 8.1437C4.08172 8.12386 4.04314 8.09727 4.01295 8.06562C3.98276 8.03396 3.96162 7.99792 3.95087 7.95979V7.59772C3.94986 7.56101 3.95858 7.52452 3.97651 7.49039C3.99445 7.45625 4.02125 7.42516 4.05534 7.39893C4.08943 7.3727 4.13012 7.35187 4.17503 7.33765C4.21995 7.32343 4.26817 7.3161 4.31689 7.31611H4.7439C6.14695 7.31611 6.90948 6.95979 7.03148 6.39657H4.36264C4.31429 6.39736 4.26623 6.39076 4.22135 6.37717C4.17647 6.36358 4.13571 6.34329 4.10151 6.31752C4.06732 6.29175 4.04039 6.26102 4.02237 6.2272C4.00434 6.19337 3.99558 6.15715 3.99662 6.12071C3.99558 6.08427 4.00434 6.04805 4.02237 6.01422C4.04039 5.9804 4.06732 5.94967 4.10151 5.9239C4.13571 5.89813 4.17647 5.87784 4.22135 5.86425C4.26623 5.85066 4.31429 5.84406 4.36264 5.84485H7.03911C6.8256 5.40232 6.10883 5.12071 4.97266 5.12071H4.33976C4.29141 5.12149 4.24335 5.11489 4.19847 5.10131C4.1536 5.08772 4.11283 5.06743 4.07864 5.04166C4.04444 5.01588 4.01752 4.98516 3.99949 4.95134C3.98147 4.91751 3.97271 4.88129 3.97375 4.84485V4.62646C3.97048 4.58933 3.97764 4.5521 3.99477 4.5172C4.01191 4.4823 4.03862 4.45052 4.07317 4.42394C4.10772 4.39736 4.14932 4.37657 4.19526 4.36294C4.2412 4.34931 4.29044 4.34315 4.33976 4.34485H9.62407C9.67372 4.34322 9.72327 4.34939 9.76958 4.36296C9.81589 4.37654 9.85795 4.39723 9.89308 4.42371C9.92822 4.45019 9.95567 4.48189 9.97368 4.51679C9.99169 4.5517 9.99988 4.58904 9.99771 4.62646C9.99875 4.66365 9.9898 4.70062 9.97139 4.73514C9.95298 4.76966 9.9255 4.80102 9.89059 4.82733C9.85569 4.85364 9.81408 4.87435 9.76828 4.88823C9.72248 4.9021 9.67343 4.90885 9.62407 4.90807H7.76351C8.0206 5.05638 8.21847 5.25524 8.3354 5.48278C8.3956 5.58973 8.4391 5.70159 8.46503 5.81611H9.64695C9.74807 5.81611 9.84505 5.84639 9.91655 5.90028C9.98805 5.95417 10.0282 6.02726 10.0282 6.10347C10.0282 6.17968 9.98805 6.25277 9.91655 6.30666C9.84505 6.36055 9.74807 6.39082 9.64695 6.39082L9.65458 6.41956Z" fill="black"/>
</svg>
