<svg width="14" height="15" viewBox="0 0 14 15" fill="none" xmlns="http://www.w3.org/2000/svg">
<path d="M13.8145 6.92636L7.00016 0L0.604794 6.53488C-0.15126 7.25969 0.0156611 7.66279 0.0156611 7.66279C0.0156586 7.8379 0.0741748 8.0059 0.178428 8.13009C0.282681 8.25428 0.424197 8.32456 0.572065 8.32558H2.07108V14.1589C2.07108 14.382 2.14591 14.5959 2.2791 14.7537C2.4123 14.9114 2.59295 15 2.78131 15H4.86292C5.05128 15 5.23193 14.9114 5.36513 14.7537C5.49832 14.5959 5.57315 14.382 5.57315 14.1589V10.8333H8.42717V14.1589C8.42804 14.3823 8.50359 14.5963 8.63731 14.7539C8.77102 14.9115 8.95201 15 9.14068 15H11.219C11.4077 15 11.5887 14.9115 11.7224 14.7539C11.8561 14.5963 11.9317 14.3823 11.9325 14.1589V8.34496H13.4315C13.5699 8.34473 13.7032 8.28345 13.8055 8.17308C13.9078 8.06272 13.9716 7.91119 13.9847 7.74806C14.0632 7.45349 13.8145 6.92636 13.8145 6.92636Z" fill="black"/>
</svg>
