<svg width="14" height="15" viewBox="0 0 14 15" fill="none" xmlns="http://www.w3.org/2000/svg">
<path d="M9.30649 6.34122H8.85083C8.81082 6.34122 8.77244 6.32262 8.74414 6.28951C8.71585 6.2564 8.69995 6.2115 8.69995 6.16468V4.70291C8.69995 4.65609 8.71585 4.61118 8.74414 4.57807C8.77244 4.54497 8.81082 4.52637 8.85083 4.52637H9.30649C9.34651 4.52637 9.38489 4.54497 9.41318 4.57807C9.44148 4.61118 9.45737 4.65609 9.45737 4.70291V6.16468C9.45737 6.2115 9.44148 6.2564 9.41318 6.28951C9.38489 6.32262 9.34651 6.34122 9.30649 6.34122Z" fill="black"/>
<path d="M13.3138 1.38056H10.8785V0.797969C10.8785 0.586335 10.8067 0.383368 10.6788 0.23372C10.5509 0.0840715 10.3774 0 10.1966 0H7.90015C7.72191 0.00461528 7.55229 0.0907199 7.42764 0.239871C7.30299 0.389022 7.23321 0.589358 7.23326 0.797969V1.38056H4.81916C4.65214 1.38149 4.49218 1.45953 4.37408 1.59772C4.25597 1.73591 4.18927 1.92307 4.18848 2.1185V2.82467C5.35194 3.98255 6.75999 4.75326 8.26529 5.05616V4.70308C8.26687 4.52544 8.3283 4.35572 8.43622 4.23077C8.54414 4.10582 8.68983 4.03574 8.84165 4.03575H9.29731C9.44885 4.03574 9.59423 4.10594 9.70167 4.23099C9.8091 4.35603 9.86986 4.52576 9.87066 4.70308V5.08087C11.367 4.79901 12.7709 4.05143 13.9354 2.91647V2.1185C13.9358 2.02176 13.9199 1.92588 13.8885 1.83637C13.8571 1.74686 13.811 1.66548 13.7526 1.59691C13.6943 1.52834 13.625 1.47393 13.5486 1.4368C13.4723 1.39967 13.3904 1.38056 13.3077 1.38056M10.2358 1.38056H7.86696V0.797969L7.90015 0.755599H10.1845L10.2298 0.808562L10.2358 1.38056Z" fill="black"/>
<path d="M13.9354 3.54876V8.32951C13.9354 8.52429 13.8693 8.71109 13.7516 8.84882C13.6338 8.98655 13.4742 9.06392 13.3077 9.06392H10.9751C10.6888 8.94254 10.3966 8.84115 10.1 8.76027C9.70294 8.65717 9.29916 8.59339 8.89295 8.56961C8.54367 8.56418 8.19697 8.49875 7.86394 8.37541L7.7885 8.33657C6.96903 7.87177 6.08876 7.57102 5.18429 7.4468C5.027 7.42628 4.86879 7.41685 4.71053 7.41855C4.5355 7.41855 4.3635 7.41855 4.18848 7.4468V3.47461C5.36991 4.57531 6.77602 5.29694 8.2683 5.5684V6.16864C8.2691 6.34595 8.32986 6.51568 8.4373 6.64073C8.54473 6.76577 8.69011 6.83597 8.84165 6.83597H9.29731C9.44885 6.83597 9.59423 6.76577 9.70167 6.64073C9.8091 6.51568 9.86986 6.34595 9.87066 6.16864V5.57546C11.353 5.32418 12.7538 4.62571 13.9354 3.54876Z" fill="black"/>
<path d="M2.01278 12.2022V9.02449C2.00539 8.97856 2.00586 8.93137 2.01418 8.88566C2.0225 8.83994 2.03849 8.79661 2.06122 8.75818C2.08396 8.71976 2.11299 8.68699 2.14664 8.66179C2.18028 8.63659 2.21786 8.61946 2.25721 8.61139C2.55897 8.50899 4.02553 8.00408 5.12697 8.14179C5.98663 8.27306 6.82176 8.57015 7.5984 9.02096C8.20192 9.33521 9.10721 9.2081 9.94611 9.4482C10.785 9.68829 11.7567 10.0414 11.4549 10.7723C11.1532 11.5031 10.9238 11.655 10.3444 11.5208C9.76505 11.3866 8.00578 11.1677 7.32681 11.4255C7.32681 11.4255 8.05708 12.1669 9.8073 12.0716C11.5575 11.9763 12.0313 11.2701 12.0313 11.2701C12.0313 11.2701 12.84 10.4368 13.4466 10.624C14.0531 10.8111 14.1859 11.1818 13.7212 11.6832C13.7707 11.6979 13.8168 11.7257 13.8557 11.7645C13.8947 11.8033 13.9255 11.8519 13.9459 11.9068C13.9663 11.9617 13.9757 12.0213 13.9734 12.0811C13.971 12.1409 13.957 12.1992 13.9324 12.2517C13.7453 12.6683 12.0313 13.9606 12.0313 13.9606C12.0313 13.9606 11.7476 14.4585 10.6794 14.5114C9.61115 14.5644 7.88206 15.2741 7.02807 14.8822C6.17408 14.4902 3.05989 12.7637 3.05989 12.7637C2.83007 12.6846 2.59482 12.6291 2.35679 12.5977C2.09124 12.5977 2.01278 12.4812 2.01278 12.2164" fill="black"/>
<path d="M1.22515 13.3218H0.35608C0.310151 13.3237 0.264365 13.3148 0.221424 13.2957C0.178484 13.2765 0.139259 13.2475 0.106067 13.2103C0.0728754 13.1731 0.0463887 13.1285 0.0281712 13.0791C0.00995371 13.0298 0.000374778 12.9766 0 12.9229V8.24802C0.00155758 8.19515 0.0120067 8.14316 0.0307498 8.09502C0.0494929 8.04688 0.0761624 8.00354 0.109233 7.96746C0.142304 7.93139 0.181127 7.9033 0.223483 7.8848C0.265839 7.8663 0.310897 7.85774 0.35608 7.85963H1.22515C1.31329 7.86138 1.39749 7.90264 1.46038 7.97492C1.52327 8.04719 1.56005 8.14495 1.56313 8.24802V12.9229C1.56234 13.0284 1.52616 13.1293 1.46238 13.204C1.39861 13.2786 1.31233 13.3209 1.22214 13.3218" fill="black"/>
</svg>
